<mxfile host="65bd71144e">
    <diagram id="C5RBs43oDa-KdzZeNtuy" name="Page-1">
        <mxGraphModel dx="674" dy="871" grid="1" gridSize="10" guides="1" tooltips="1" connect="1" arrows="1" fold="1" page="1" pageScale="1" pageWidth="827" pageHeight="1169" math="0" shadow="0">
            <root>
                <mxCell id="WIyWlLk6GJQsqaUBKTNV-0"/>
                <mxCell id="WIyWlLk6GJQsqaUBKTNV-1" parent="WIyWlLk6GJQsqaUBKTNV-0"/>
                <mxCell id="0" value="1. Log로 부터 문자열을 읽어 라인별로 저장 ?&lt;br&gt;&lt;br&gt;2. 라인별로 돌면서 문자열 비교&lt;br&gt;&lt;br&gt;&lt;br&gt;* Log 시간이 70초 이상 입력되지 않을 경우 FAIL&lt;br&gt;&lt;br&gt;동작 확인을위한 Timer 스레드&lt;br&gt;&lt;br&gt;70초 이상 Log가 입력되지 않는 상황을 어떻게 만들까?&lt;br&gt;Log에서 입력되는 Lines가 70초 이상 비어있으면?&lt;br&gt;&lt;br&gt;1. Txt에 count를 입력하여 count가 오지 않으면 break 하는 방법&lt;br&gt;&lt;br&gt;특수문자 충돌등에 의한 Error 발생 시 대응 방법&lt;br&gt;1. Log file 여러개로&amp;nbsp;&lt;br&gt;2. try-except로 다른 log파일 열기&lt;br&gt;-&amp;gt; Log 파일 여러개 생성은 실패&lt;br&gt;&lt;br&gt;" style="rounded=1;whiteSpace=wrap;html=1;fontSize=12;glass=0;strokeWidth=1;shadow=0;" parent="WIyWlLk6GJQsqaUBKTNV-1" vertex="1">
                    <mxGeometry x="550" y="140" width="210" height="470" as="geometry"/>
                </mxCell>
                <mxCell id="22" value="" style="group" parent="WIyWlLk6GJQsqaUBKTNV-1" vertex="1" connectable="0">
                    <mxGeometry x="40" y="40" width="280" height="449.49000000000007" as="geometry"/>
                </mxCell>
                <mxCell id="2" value="start" style="rounded=1;whiteSpace=wrap;html=1;fontSize=12;glass=0;strokeWidth=1;shadow=0;" parent="22" vertex="1">
                    <mxGeometry width="150" height="45.12820512820513" as="geometry"/>
                </mxCell>
                <mxCell id="5" value="Count &amp;gt; 130" style="rhombus;whiteSpace=wrap;html=1;shadow=0;fontFamily=Helvetica;fontSize=12;align=center;strokeWidth=1;spacing=6;spacingTop=-4;" parent="22" vertex="1">
                    <mxGeometry x="12.5" y="246.40846153846155" width="125" height="90.25641025641026" as="geometry"/>
                </mxCell>
                <mxCell id="1" value="" style="rounded=0;html=1;jettySize=auto;orthogonalLoop=1;fontSize=11;endArrow=block;endFill=0;endSize=8;strokeWidth=1;shadow=0;labelBackgroundColor=none;edgeStyle=orthogonalEdgeStyle;" parent="22" source="13" target="5" edge="1">
                    <mxGeometry relative="1" as="geometry">
                        <mxPoint x="75" y="189.9982051282051" as="sourcePoint"/>
                        <Array as="points"/>
                    </mxGeometry>
                </mxCell>
                <mxCell id="4" value="No" style="edgeStyle=orthogonalEdgeStyle;rounded=0;html=1;jettySize=auto;orthogonalLoop=1;fontSize=11;endArrow=block;endFill=0;endSize=8;strokeWidth=1;shadow=0;labelBackgroundColor=none;entryX=1;entryY=0.5;entryDx=0;entryDy=0;" parent="22" source="5" target="2" edge="1">
                    <mxGeometry x="-0.8458" y="12" relative="1" as="geometry">
                        <mxPoint as="offset"/>
                        <mxPoint x="170" y="23" as="targetPoint"/>
                        <Array as="points">
                            <mxPoint x="280" y="292"/>
                            <mxPoint x="280" y="23"/>
                            <mxPoint x="150" y="23"/>
                        </Array>
                    </mxGeometry>
                </mxCell>
                <mxCell id="3" value="Yes" style="rounded=0;html=1;jettySize=auto;orthogonalLoop=1;fontSize=11;endArrow=block;endFill=0;endSize=8;strokeWidth=1;shadow=0;labelBackgroundColor=none;edgeStyle=orthogonalEdgeStyle;" parent="22" source="5" target="10" edge="1">
                    <mxGeometry y="20" relative="1" as="geometry">
                        <mxPoint as="offset"/>
                        <mxPoint x="74.99999999999989" y="381.793076923077" as="targetPoint"/>
                    </mxGeometry>
                </mxCell>
                <mxCell id="10" value="timer.cancel()&lt;br&gt;ser.close()" style="rounded=1;whiteSpace=wrap;html=1;fontSize=12;glass=0;strokeWidth=1;shadow=0;" parent="22" vertex="1">
                    <mxGeometry y="404.3617948717949" width="150" height="45.12820512820513" as="geometry"/>
                </mxCell>
                <mxCell id="13" value="count += 1" style="rounded=1;whiteSpace=wrap;html=1;fontSize=12;glass=0;strokeWidth=1;shadow=0;" parent="22" vertex="1">
                    <mxGeometry y="150" width="150" height="45.12820512820513" as="geometry"/>
                </mxCell>
                <mxCell id="21" value="" style="rounded=0;html=1;jettySize=auto;orthogonalLoop=1;fontSize=11;endArrow=block;endFill=0;endSize=8;strokeWidth=1;shadow=0;labelBackgroundColor=none;edgeStyle=orthogonalEdgeStyle;exitX=0.5;exitY=1;exitDx=0;exitDy=0;entryX=0.5;entryY=0;entryDx=0;entryDy=0;" parent="22" source="2" target="13" edge="1">
                    <mxGeometry relative="1" as="geometry">
                        <mxPoint x="74.58000000000001" y="93.58820512820509" as="sourcePoint"/>
                        <mxPoint x="60" y="120" as="targetPoint"/>
                    </mxGeometry>
                </mxCell>
                <mxCell id="23" value="1. Log로 부터 문자열을 읽어 라인별로 저장 ?&lt;br&gt;&lt;br&gt;2. 라인별로 돌면서 문자열 비교&lt;br&gt;&lt;br&gt;&lt;br&gt;* Log 시간이 70초 이상 입력되지 않을 경우 FAIL&lt;br&gt;&lt;br&gt;동작 확인을위한 Timer 스레드&lt;br&gt;&lt;br&gt;70초 이상 Log가 입력되지 않는 상황을 어떻게 만들까?&lt;br&gt;Log에서 입력되는 Lines가 70초 이상 비어있으면?&lt;br&gt;&lt;br&gt;1. Txt에 count를 입력하여 count가 오지 않으면 break 하는 방법&lt;br&gt;&lt;br&gt;특수문자 충돌등에 의한 Error 발생 시 대응 방법&lt;br&gt;1. Log file 여러개로&amp;nbsp;&lt;br&gt;2. try-except로 다른 log파일 열기&lt;br&gt;-&amp;gt; Log 파일 여러개 생성은 실패&lt;br&gt;&lt;br&gt;" style="rounded=1;whiteSpace=wrap;html=1;fontSize=12;glass=0;strokeWidth=1;shadow=0;" parent="WIyWlLk6GJQsqaUBKTNV-1" vertex="1">
                    <mxGeometry x="320" y="140" width="210" height="470" as="geometry"/>
                </mxCell>
            </root>
        </mxGraphModel>
    </diagram>
    <diagram id="dAQfpEdX2pU9Dpjad1IR" name="SW_Overview">
        <mxGraphModel dx="434" dy="871" grid="1" gridSize="10" guides="1" tooltips="1" connect="1" arrows="1" fold="1" page="1" pageScale="1" pageWidth="827" pageHeight="1169" math="0" shadow="0">
            <root>
                <mxCell id="42iMEpAiWCkOY4xxqwo_-0"/>
                <mxCell id="42iMEpAiWCkOY4xxqwo_-1" parent="42iMEpAiWCkOY4xxqwo_-0"/>
                <mxCell id="42iMEpAiWCkOY4xxqwo_-2" value="" style="rounded=0;whiteSpace=wrap;html=1;" parent="42iMEpAiWCkOY4xxqwo_-1" vertex="1">
                    <mxGeometry x="100" y="100" width="370" height="400" as="geometry"/>
                </mxCell>
                <mxCell id="42iMEpAiWCkOY4xxqwo_-3" value="" style="rounded=0;whiteSpace=wrap;html=1;" parent="42iMEpAiWCkOY4xxqwo_-1" vertex="1">
                    <mxGeometry x="110" y="270" width="350" height="220" as="geometry"/>
                </mxCell>
                <mxCell id="42iMEpAiWCkOY4xxqwo_-4" value="State Machine" style="text;html=1;strokeColor=none;fillColor=none;align=center;verticalAlign=middle;whiteSpace=wrap;rounded=0;fontStyle=1" parent="42iMEpAiWCkOY4xxqwo_-1" vertex="1">
                    <mxGeometry x="110" y="240" width="120" height="30" as="geometry"/>
                </mxCell>
                <mxCell id="42iMEpAiWCkOY4xxqwo_-5" value="Application" style="text;html=1;strokeColor=none;fillColor=none;align=center;verticalAlign=middle;whiteSpace=wrap;rounded=0;fontStyle=1" parent="42iMEpAiWCkOY4xxqwo_-1" vertex="1">
                    <mxGeometry x="110" y="110" width="120" height="30" as="geometry"/>
                </mxCell>
                <mxCell id="42iMEpAiWCkOY4xxqwo_-11" value="" style="rounded=0;whiteSpace=wrap;html=1;" parent="42iMEpAiWCkOY4xxqwo_-1" vertex="1">
                    <mxGeometry x="110" y="140" width="350" height="80" as="geometry"/>
                </mxCell>
                <mxCell id="42iMEpAiWCkOY4xxqwo_-6" value="Database Class" style="rounded=0;whiteSpace=wrap;html=1;" parent="42iMEpAiWCkOY4xxqwo_-1" vertex="1">
                    <mxGeometry x="342.5" y="150" width="105" height="60" as="geometry"/>
                </mxCell>
                <mxCell id="42iMEpAiWCkOY4xxqwo_-8" value="Excel Class" style="rounded=0;whiteSpace=wrap;html=1;" parent="42iMEpAiWCkOY4xxqwo_-1" vertex="1">
                    <mxGeometry x="232.5" y="150" width="105" height="60" as="geometry"/>
                </mxCell>
                <mxCell id="42iMEpAiWCkOY4xxqwo_-10" value="Main Class" style="rounded=0;whiteSpace=wrap;html=1;" parent="42iMEpAiWCkOY4xxqwo_-1" vertex="1">
                    <mxGeometry x="122.5" y="150" width="105" height="60" as="geometry"/>
                </mxCell>
                <mxCell id="42iMEpAiWCkOY4xxqwo_-14" value="Time thread" style="rounded=0;whiteSpace=wrap;html=1;" parent="42iMEpAiWCkOY4xxqwo_-1" vertex="1">
                    <mxGeometry x="122.5" y="280" width="105" height="60" as="geometry"/>
                </mxCell>
                <mxCell id="42iMEpAiWCkOY4xxqwo_-15" value="Charging Check" style="rounded=0;whiteSpace=wrap;html=1;" parent="42iMEpAiWCkOY4xxqwo_-1" vertex="1">
                    <mxGeometry x="122.5" y="350" width="105" height="60" as="geometry"/>
                </mxCell>
                <mxCell id="42iMEpAiWCkOY4xxqwo_-7" value="Update DB" style="rounded=0;whiteSpace=wrap;html=1;" vertex="1" parent="42iMEpAiWCkOY4xxqwo_-1">
                    <mxGeometry x="342.5" y="280" width="105" height="60" as="geometry"/>
                </mxCell>
                <mxCell id="42iMEpAiWCkOY4xxqwo_-9" value="Update Excel Data" style="rounded=0;whiteSpace=wrap;html=1;" vertex="1" parent="42iMEpAiWCkOY4xxqwo_-1">
                    <mxGeometry x="232.5" y="280" width="105" height="60" as="geometry"/>
                </mxCell>
            </root>
        </mxGraphModel>
    </diagram>
</mxfile>